<svg height="64" viewBox="0 0 64 64" width="64" xmlns="http://www.w3.org/2000/svg">
  <path d="m17.6939849 20.5371574c0-2.4584923 1.9935986-4.4514942 4.452827-4.4514942s4.452827 1.9930019 4.452827 4.4514942-1.9935986 4.4514941-4.452827 4.4514941c-2.4579394-.0031084-4.4497176-1.9942905-4.452827-4.4514941zm-16.08999971 21.4506727c-3.95432803-12.0157508-.4549049-25.2324931 8.92786461-33.71906776 9.3827694-8.48657465 22.8866144-10.64903404 34.4515352-5.51695061s19.0187952 16.59480227 19.016615 29.24413477c-.0035313 1.8153773-.1602273 3.6272222-.4684221 5.4162666l-13.0988738-13.094953-9.4530865 9.444615v-22.3195321c0-1.246384-1.0106963-2.25677778-2.2574535-2.25677778v4.71102358c-.5027187-.2303375-1.0498002-.3478093-1.602792-.3441586-.5532973-.0007941-1.1001659.1185569-1.6027919.3498005v-4.71666548c-1.2467572 0-2.2574535 1.01039378-2.2574535 2.25677778v22.325174h-11.9701471c-1.2467572 0-2.2574535 1.0103939-2.2574535 2.2567778h3.6345001c-.1853887.4432495-.2812879.9187674-.2821817 1.3992022v4.569975zm13.83254621-21.4393888c.0062313 3.703401 3.0132799 6.701135 6.7177927 6.6969881 3.7045128-.0041555 6.7048314-3.0086213 6.7027588-6.712027-.0020747-3.7034057-3.0057559-6.7045169-6.710271-6.7045169-3.7046958.0031109-6.7071686 3.004685-6.7102805 6.7082719zm21.6828407-4.7392333c.8851976 0 1.602792.7173796 1.602792 1.6023122v29.9023054c-.0019676.3650272-.2721467.6730506-.6338969.7226878-.3617502.0496371-.7049546-.1742217-.8052297-.5252198l-.2257453-.8237238c-.676599-2.4002654-2.866956-4.0581905-5.3614521-4.0581905-2.494496 0-4.684853 1.6579251-5.361452 4.0581905l-.2257453.8237238c-.0915219.3620745-.4405713.5975886-.8106956.5470008s-.6431286-.3711229-.6340747-.7444688v-9.8959705c.0031081-.7705538.6288304-1.3935666 1.3996212-1.3935603h9.4530865v-18.6184166c.0031091-.8827285.7197937-1.5966702 1.6027919-1.5966702zm1.1287268 2.4260361h-2.2405226c-.0703169.440411.1254406.8809054.4994906 1.1239563.37405.2430508.8562041.2430508 1.2302541 0 .3740501-.2430509.5698075-.6835453.4994906-1.1239563zm12.1846052 9.2697146-9.4530865 9.4502569v10.3473261c-.0017971 1.4960566-1.1092949 2.760556-2.5924481 2.9599597-1.4831532.1994038-2.8854742-.727661-3.2825746-2.1700875l-.2257453-.8237239c-.3953503-1.43762-1.702891-2.4339051-3.1942967-2.4339051s-2.7989465.9962851-3.1942967 2.4339051l-.2257454.8237239c-.3887036 1.4531227-1.7966571 2.391409-3.2878907 2.1911113s-2.6015221-1.4768262-2.5927756-2.9809835v-3.0579339h-19.94460152c5.25962633 12.7026371 18.04957872 20.6252771 31.76895932 19.6790434s25.2998222-10.5497141 28.7646559-23.8540822z" fill="#383837" />
</svg>