<svg height="64" viewBox="0 0 64 64" width="64" xmlns="http://www.w3.org/2000/svg">
  <path d="m22.3793985 41.9931211v-4.5718317c.0008939-.4806301.0968034-.9563412.2822119-1.3997707h-3.6348885c0-1.2468904 1.0108044-2.2576947 2.2576947-2.2576947h11.9714261v-22.3286004c0-1.2468904 1.0108043-2.25769472 2.2576946-2.25769472v4.71293762c.5031164-.2293938 1.0500247-.3468636 1.6029633-.3442984.5534725-.0018828 1.1006315.1175675 1.6029632.3499427v-4.71858192c1.2468903 0 2.2576947 1.01080432 2.2576947 2.25769472v22.3286004l9.4540965-9.4484523 13.5461681 13.5461681v-37.8615398h-63.9774231v41.9931211zm-.2427021-28.1703878c2.7148575-.0022809 5.1636624 1.6313527 6.2041759 4.1388989 1.0405136 2.5075463.4677431 5.3949913-1.4511439 7.3154936-1.9188871 1.9205023-4.8058491 2.495702-7.31427 1.4572987s-4.1441152-3.4858328-4.1441152-6.2006914c.0031064-3.7028911 3.0024659-6.7047754 6.7053532-6.7109998zm-4.4476586 6.7109998c0-1.8017061 1.0856256-3.4258978 2.7504038-4.1148525 1.6647783-.6889546 3.5806652-.3069133 4.8538557.967893 1.2731906 1.2748062 1.6528018 3.1911762.9617364 4.8550793s-2.3166326 2.7474665-4.1183373 2.7451866c-2.4559975-.0062194-4.4445576-1.997303-4.4476586-4.4533064zm17.8244995-3.1325513v18.6259811h-9.4766734c-.7708731-.0000063-1.3966623.6232596-1.3997707 1.3941265v9.8887027c-.0090549.3734976.2639785.6941629.6341424.7447713.3701638.0506083.7192505-.1850015.8107822-.5472231l.2257695-.8240585c.6766712-2.4012406 2.8672623-4.0598393 5.3620249-4.0598393 2.4947625 0 4.6853536 1.6585987 5.3620248 4.0598393l.2257695.8240585c.1002858.3511407.4435268.5750905.8053157.5254332.3617888-.0496573.6319968-.3578059.6339647-.7229814v-29.9144546c0-.8852921-.7176711-1.6029632-1.6029633-1.6029632-.8852921 0-1.6029632.7176711-1.6029632 1.6029632zm1.6029633 1.9416174c-.6234452 0-1.1288474-.5054022-1.1288474-1.1288474h2.2576947c0 .6234452-.5054022 1.1288474-1.1288473 1.1288474zm26.8834994 21.7303113v22.9268895h-64v-19.7548285h22.3793985v3.0591763c-.0087475 1.5047685 1.1016597 2.7818156 2.5930526 2.9821947 1.4913929.200379 2.8994969-.7382884 3.2882421-2.1920015l.2257695-.8240586c.3953924-1.4382041 1.7030729-2.434894 3.1946379-2.434894 1.4915651 0 2.7992455.9966899 3.194638 2.434894l.2257695.8240586c.3971428 1.4430125 1.7996136 2.3704539 3.2829253 2.1709692 1.4833116-.1994848 2.5909278-1.4644979 2.5927251-2.9611624v-10.3458859l9.4540965-9.4540964z" fill="#383837" />
</svg>