<svg height="48" viewBox="0 0 48 48" width="48" xmlns="http://www.w3.org/2000/svg" xmlns:xlink="http://www.w3.org/1999/xlink">
<defs>
  <path id="a" d="m16.7845489 31.4948408v-3.4288738c.0006704-.3604725.0726025-.7172559.2116589-1.049828h-2.7261664c0-.9351678.7581033-1.693271 1.6932711-1.693271h8.9785695v-16.74645033c0-.93516775.7581033-1.69327101 1.693271-1.69327101v3.53470324c.3773373-.1720454.7875185-.2601477 1.2022224-.2582238.4151044-.0014121.8254737.0881756 1.2022224.262457v-3.53893644c.9351678 0 1.6932711.75810326 1.6932711 1.69327101v16.74645033l7.0905723-7.0863392 10.1596261 10.1596261v-28.3961549h-47.9830673v31.4948408zm-.1820266-21.1277908c2.0361431-.0017107 3.8727468 1.2235145 4.653132 3.1041742.7803851 1.8806597.3508073 4.0462434-1.088358 5.4866201-1.4391653 1.4403768-3.6043868 1.8717765-5.4857025 1.0929741-1.8813157-.7788025-3.1080864-2.6143747-3.1080864-4.6505185.0023298-2.7771684 2.2518494-5.0285816 5.0290149-5.0332499zm-3.3357439 5.0332499c0-1.3512797.8142191-2.5694235 2.0628028-3.0861394 1.2485837-.516716 2.6854989-.230185 3.6403918.7259197s1.2396013 2.3933821.7213023 3.6413095c-.5182991 1.2479273-1.7374745 2.0605999-3.088753 2.0588899-1.8419981-.0046645-3.3334182-1.4979772-3.3357439-3.3399797zm13.3683746-2.3494136v13.9694859h-7.1075051c-.5781548-.0000047-1.0474967.4674447-1.049828 1.0455948v7.416527c-.0067912.2801233.1979839.5206223.4756068.5585785.2776229.0379563.5394379-.1387511.6080867-.4104172l.1693271-.618044c.5075034-1.8009304 2.1504467-3.0448794 4.0215186-3.0448794s3.5140152 1.243949 4.0215187 3.0448794l.1693271.618044c.0752143.2633555.3326451.4313178.6039867.3940748.2713417-.037243.4739976-.2683544.4754735-.5422361v-22.4358409c0-.6639691-.5382533-1.2022224-1.2022224-1.2022224s-1.2022224.5382533-1.2022224 1.2022224zm1.2022224 1.4562131c-.4675838 0-.8466355-.3790516-.8466355-.8466355h1.693271c0 .4675839-.3790516.8466355-.8466355.8466355zm20.1626246 16.2977335v17.1951671h-48v-14.8161214h16.7845489v2.2943823c-.0065606 1.1285763.8262447 2.0863616 1.9447894 2.2366459 1.1185447.1502844 2.1746227-.5537162 2.4661816-1.6440011l.1693271-.6180439c.2965443-1.0786531 1.2773047-1.8261705 2.3959785-1.8261705s2.0994341.7475174 2.3959785 1.8261705l.1693271.6180439c.2978571 1.0822594 1.3497102 1.7778405 2.4621939 1.6282269 1.1124838-.1496135 1.9431959-1.0983734 1.9445439-2.2208717v-7.7594144l7.0905723-7.0905724z"/>
</defs>
<g fill="none">
  <use fill="#383837" xlink:href="#a"/>
</g>
</svg>