<svg height="64" viewBox="0 0 64 64" width="64" xmlns="http://www.w3.org/2000/svg">
  <path d="m22.1489755 27.2402238c3.7074176 0 6.7128734-3.0041189 6.7128734-6.7098873 0-3.7057685-3.0054558-6.7098874-6.7128734-6.7098874s-6.7128735 3.0041189-6.7128735 6.7098874c.0031131 3.7044787 3.0067461 6.7067756 6.7128735 6.7098873zm0-11.1624534c2.4601787 0 4.4545476 1.9934817 4.4545476 4.4525661 0 2.4590843-1.9943689 4.4525661-4.4545476 4.4525661s-4.4545477-1.9934818-4.4545477-4.4525661c0-2.4590844 1.994369-4.4525661 4.4545477-4.4525661zm9.8575921-16.0777704c-10.6792004.00366094-20.6535605 5.32914782-26.59456596 14.199308-5.94100546 8.8701602-7.0664608 20.1171445-3.00079363 29.9877548v.056433c6.14708217 14.832277 22.33864719 22.8151021 37.85387989 18.6628596s25.5501343-19.1538892 23.460361-35.0719978c-2.0897733-15.9181085-15.6571627-27.82393726-31.7188813-27.8343576zm-2.1849302 2.33632746c8.8458146-.66055488 17.5241666 2.66450419 23.6618316 9.06589034 6.137665 6.4013862 9.0924606 15.209324 8.0563542 24.0151521l-11.0940255-11.1060204-9.4567392 9.4468893v-22.3249068c0-1.2466841-1.0110869-2.25732126-2.2583258-2.25732126v4.71215806c-.502913-.230393-1.0502059-.3478931-1.6034114-.3442415-.5535111-.0007943-1.100591.1185855-1.6034113.3498848v-4.71780136c-1.2472389 0-2.2583258 1.01063716-2.2583258 2.25732126v22.3305501h-11.9747725c-1.2472389 0-2.2583258 1.0106371-2.2583258 2.2573212h3.6359045c-.1854603.4433562-.2813966.9189886-.2822907 1.3995392v4.5710754h-18.39406364c-3.12918463-8.74362-1.99027563-18.4466106 3.07866245-26.2288146 5.06893809-7.78220396 13.48533629-12.74921876 22.75093889-13.42667584zm-5.1772119 35.07877164c.0031092-.7707393.6290733-1.3939021 1.400162-1.3938958h9.4793225v-18.6229c0-.5725889.3056085-1.1016829.8017057-1.3879773.4960972-.2862945 1.1073141-.2862945 1.6034113 0 .4960972.2862944.8017057.8153884.8017057 1.3879773v29.9095061c-.0019685.3651151-.2722519.6732127-.6341419.7228618s-.705227-.1742636-.8055408-.5253462l-.2258326-.8239223c-.6768604-2.4008433-2.8680639-4.0591677-5.3635238-4.0591677s-4.6866633 1.6583244-5.3635238 4.0591677l-.2258325.8239223c-.0915573.3621616-.4407416.5977325-.8110089.5471325s-.6433771-.3712123-.6343197-.7446481zm7.3395588 24.3169928c-11.6840932-.0141061-22.28100119-6.8548981-27.09990955-17.4942394h17.50202495v3.0586703c-.00875 1.5045195 1.1019676 2.7813553 2.5937774 2.9817013 1.4918099.2003459 2.9003074-.7381663 3.2891613-2.1916389l.2258326-.8239222c.395503-1.4379663 1.703549-2.4344912 3.195531-2.4344912s2.800028.9965249 3.195531 2.4344912l.2258326.8239222c.3972538 1.4427738 1.8001167 2.3700618 3.283843 2.1706101 1.4837263-.1994518 2.5916521-1.4642557 2.5934499-2.9606725v-10.3441745l9.4567392-9.4525326 10.6649436 10.6601994c-2.932201 13.7308632-15.0577566 23.5516033-29.1041737 23.5720768zm4.0085283-43.5098664h2.2300968c.070344.4405171-.1254891.8811176-.4996837 1.124227-.3741945.2431093-.8565349.2431093-1.2307295 0-.3741945-.2431094-.5700276-.6837099-.4996836-1.124227z" fill="#F7F7F5"/>
</svg>