<svg height="64" viewBox="0 0 64 64" width="64" xmlns="http://www.w3.org/2000/svg">
  <path d="m0 0v64h64v-64zm61.7423053 2.25769468v33.36872742l-11.2884734-11.2884734-9.4766734 9.4258753v-22.3286004c0-1.2468904-1.0108044-2.25769472-2.2576947-2.25769472v4.71293762c-.5027724-.2304311-1.0499123-.3479506-1.6029632-.3442984-.5533564-.0007945-1.1002835.1186051-1.6029633.3499427v-4.71858192c-1.2468903 0-2.2576946 1.01080432-2.2576946 2.25769472v22.3342446h-11.9714261c-1.2468903 0-2.2576947 1.0108043-2.2576947 2.2576947h3.6348885c-.1854085.4434295-.281318.9191406-.2822119 1.3997707v4.5718317h-20.12170382v-39.74107062zm-37.1052121 35.16359472c.0031084-.7708669.6288976-1.3941328 1.3997707-1.3941265h9.4766734v-18.6259811c0-.5726837.3055231-1.1018652.8014816-1.388207.4959586-.2863418 1.1070048-.2863418 1.6029633 0 .4959586.2863418.8014816.8155233.8014816 1.388207v29.9144545c-.0019679.3651755-.2721758.6733241-.6339647.7229814-.3617888.0496573-.7050299-.1742924-.8053157-.5254331l-.2257694-.8240586c-.6766713-2.4012405-2.8672624-4.0598392-5.3620249-4.0598392s-4.6853536 1.6585987-5.3620249 4.0598392l-.2257694.8240586c-.0915317.3622215-.4406184.5978313-.8107823.547223-.3701638-.0506083-.6431973-.3712737-.6341423-.7447713zm-22.37939852 24.3210159v-17.4971338h20.12170382v3.0591763c-.0087475 1.5047685 1.1016597 2.7818156 2.5930526 2.9821947 1.4913929.200379 2.8994969-.7382884 3.2882421-2.1920015l.2257695-.8240586c.3953924-1.4382041 1.7030729-2.434894 3.1946379-2.434894 1.4915651 0 2.7992455.9966899 3.194638 2.434894l.2257695.8240586c.3971428 1.4430125 1.7996136 2.3704539 3.2829253 2.1709692 1.4833116-.1994848 2.5909278-1.4644979 2.5927251-2.9611624v-10.3458859l9.4540965-9.4540964 11.2884734 11.2884734.0451539-.0395097v23.0059088zm19.87900172-34.4975723c2.7148575.0022809 5.1636624-1.6313527 6.2041759-4.138899 1.0405136-2.5075463.4677431-5.3949912-1.4511439-7.3154935-1.9188871-1.9205023-4.8058491-2.495702-7.31427-1.4572987s-4.1441152 3.4858328-4.1441152 6.2006913c.0031064 3.7028912 3.0024659 6.7047754 6.7053532 6.7109999zm0-11.1643062c1.8017047-.00228 3.4272719 1.0812834 4.1183373 2.7451866.6910654 1.6639031.3114542 3.5802731-.9617364 4.8550793-1.2731905 1.2748062-3.1890774 1.6568476-4.8538557.9678929-1.6647782-.6889546-2.7504038-2.3131463-2.7504038-4.1148525 0-2.4572886 1.9903719-4.4501883 4.4476586-4.4533063zm13.8622453 2.1448135h2.2576947c0 .6234452-.5054022 1.1288474-1.1288474 1.1288474-.6234451 0-1.1288473-.5054022-1.1288473-1.1288474z" fill="#EBEAE6" />
</svg>