<svg height="800" viewBox="0 0 800 800" width="800" xmlns="http://www.w3.org/2000/svg" xmlns:xlink="http://www.w3.org/1999/xlink"><defs><ellipse id="a" cx="397" cy="400" rx="397" ry="400"/><mask id="b" fill="#fff"><use fill="#fff" fill-rule="evenodd" xlink:href="#a"/></mask></defs><g fill="none" fill-rule="evenodd"><use fill="#fff" opacity="0" xlink:href="#a"/><path d="m279.8412 525v-57.157258c.011177-6.00886 1.210469-11.956223 3.528893-17.5h-45.45214c0-15.588683 12.639513-28.225807 28.231143-28.225807h149.695633v-279.153225c0-15.588683 12.639513-28.225807 28.231142-28.225807v58.921371c6.291174-2.867893 13.12994-4.336505 20.044111-4.304435 6.920848-.023539 13.76275 1.469834 20.044112 4.375v-58.991936c15.591629 0 28.231142 12.637124 28.231142 28.225807v279.153225l118.217909-118.125 169.386855 169.354839v-473.346774h-800v525zm-2.91307-352c33.980748-.028549 64.631425 20.418964 77.655102 51.804879 13.023677 31.385916 5.854546 67.526865-18.163369 91.564995s-60.152823 31.237666-91.549688 18.240403c-31.396866-12.997263-51.870175-43.630722-51.870175-77.611479.038882-46.347551 37.580623-83.920889 83.92813-83.998798zm-55.92813 83.50077c0-22.453722 13.529586-42.695174 34.27685-51.281256 20.747264-8.586081 44.623965-3.8249 60.491076 12.062344 15.86711 15.887244 20.598007 39.769961 11.985619 60.506316s-28.870986 34.24024-51.324693 34.211826c-30.607818-.077509-55.390206-24.891343-55.428852-55.49923zm223.151563-38.411257v232.615418h-118.626817c-9.649613-.000078-17.483098 7.78374-17.522008 17.410911v123.49764c-.113347 4.664523 3.304423 8.669235 7.938049 9.301271 4.633626.632035 9.003413-2.31044 10.149185-6.834137l2.82613-10.29147c8.470416-29.988518 35.89173-50.702361 67.120594-50.702361 31.228863 0 58.650178 20.713843 67.120593 50.702361l2.826131 10.29147c1.255354 4.385312 5.551967 7.182166 10.080756 6.562008 4.52879-.620158 7.911191-4.468552 7.935824-9.029142v-373.594458c0-11.056202-8.983641-20.019024-20.065525-20.019024-11.081883 0-20.065525 8.962822-20.065525 20.019024zm19.848437 23.910487c-7.731986 0-14-6.268014-14-14h28c0 7.731986-6.268014 14-14 14zm336 271.536653v286.463347h-800v-246.82957h279.742482v38.223322c-.109344 18.801548 13.770745 34.757798 32.413157 37.261463 18.642412 2.503666 36.24371-9.224651 41.103026-27.38828l2.822118-10.296319c4.942406-17.969851 21.288412-30.423136 39.932975-30.423136s34.990569 12.453285 39.932975 30.423136l2.822118 10.296319c4.964286 18.029929 22.495171 29.617981 41.036566 27.125489 18.541396-2.492491 32.386598-18.298381 32.409064-36.998672v-129.268172l118.176206-118.12558z" fill="#000" fill-rule="nonzero" mask="url(#b)"/></g></svg>